<mxfile host="app.diagrams.net" modified="2022-11-13T11:17:51.367Z" agent="5.0 (Windows NT 10.0; Win64; x64) AppleWebKit/537.36 (KHTML, like Gecko) Chrome/107.0.0.0 Safari/537.36" etag="0LfUxvr70fNa_QZRqSgr" version="20.5.1" type="github">
  <diagram id="TKiDiDh5SZZHWiYgm6Ub" name="第 1 页">
    <mxGraphModel dx="1422" dy="762" grid="1" gridSize="10" guides="1" tooltips="1" connect="1" arrows="1" fold="1" page="1" pageScale="1" pageWidth="1200" pageHeight="1600" math="0" shadow="0">
      <root>
        <mxCell id="0" />
        <mxCell id="1" parent="0" />
        <mxCell id="6cQkPqsOv6DgXbVo88Bq-1" style="edgeStyle=orthogonalEdgeStyle;rounded=0;orthogonalLoop=1;jettySize=auto;html=1;exitX=0.5;exitY=1;exitDx=0;exitDy=0;entryX=0.5;entryY=0;entryDx=0;entryDy=0;" edge="1" parent="1" source="6cQkPqsOv6DgXbVo88Bq-2" target="6cQkPqsOv6DgXbVo88Bq-4">
          <mxGeometry relative="1" as="geometry" />
        </mxCell>
        <mxCell id="6cQkPqsOv6DgXbVo88Bq-2" value="开始：进入main函数" style="rounded=1;whiteSpace=wrap;html=1;" vertex="1" parent="1">
          <mxGeometry x="270" y="150" width="120" height="60" as="geometry" />
        </mxCell>
        <mxCell id="6cQkPqsOv6DgXbVo88Bq-3" style="edgeStyle=orthogonalEdgeStyle;rounded=0;orthogonalLoop=1;jettySize=auto;html=1;" edge="1" parent="1" source="6cQkPqsOv6DgXbVo88Bq-4" target="6cQkPqsOv6DgXbVo88Bq-6">
          <mxGeometry relative="1" as="geometry" />
        </mxCell>
        <mxCell id="6cQkPqsOv6DgXbVo88Bq-4" value="TRISBO=1&lt;br&gt;配置RB0引脚为输入模式" style="rounded=0;whiteSpace=wrap;html=1;" vertex="1" parent="1">
          <mxGeometry x="270" y="250" width="120" height="60" as="geometry" />
        </mxCell>
        <mxCell id="6cQkPqsOv6DgXbVo88Bq-5" style="edgeStyle=orthogonalEdgeStyle;rounded=0;orthogonalLoop=1;jettySize=auto;html=1;" edge="1" parent="1" source="6cQkPqsOv6DgXbVo88Bq-6" target="6cQkPqsOv6DgXbVo88Bq-8">
          <mxGeometry relative="1" as="geometry" />
        </mxCell>
        <mxCell id="6cQkPqsOv6DgXbVo88Bq-6" value="TRISD = 0x00&lt;br&gt;设置PORTD为输出" style="rounded=0;whiteSpace=wrap;html=1;" vertex="1" parent="1">
          <mxGeometry x="270" y="350" width="120" height="60" as="geometry" />
        </mxCell>
        <mxCell id="6cQkPqsOv6DgXbVo88Bq-7" style="edgeStyle=orthogonalEdgeStyle;rounded=0;orthogonalLoop=1;jettySize=auto;html=1;" edge="1" parent="1" source="6cQkPqsOv6DgXbVo88Bq-8" target="6cQkPqsOv6DgXbVo88Bq-10">
          <mxGeometry relative="1" as="geometry" />
        </mxCell>
        <mxCell id="6cQkPqsOv6DgXbVo88Bq-8" value="PORTD=0X00&lt;br&gt;熄灭PORTD端口所有灯" style="rounded=0;whiteSpace=wrap;html=1;" vertex="1" parent="1">
          <mxGeometry x="270" y="430" width="120" height="60" as="geometry" />
        </mxCell>
        <mxCell id="6cQkPqsOv6DgXbVo88Bq-9" style="edgeStyle=orthogonalEdgeStyle;rounded=0;orthogonalLoop=1;jettySize=auto;html=1;" edge="1" parent="1" source="6cQkPqsOv6DgXbVo88Bq-10" target="6cQkPqsOv6DgXbVo88Bq-12">
          <mxGeometry relative="1" as="geometry" />
        </mxCell>
        <mxCell id="6cQkPqsOv6DgXbVo88Bq-10" value="INTEDG = 0&lt;br&gt;RB0下降沿输入" style="rounded=0;whiteSpace=wrap;html=1;" vertex="1" parent="1">
          <mxGeometry x="270" y="510" width="120" height="60" as="geometry" />
        </mxCell>
        <mxCell id="6cQkPqsOv6DgXbVo88Bq-11" style="edgeStyle=orthogonalEdgeStyle;rounded=0;orthogonalLoop=1;jettySize=auto;html=1;" edge="1" parent="1" source="6cQkPqsOv6DgXbVo88Bq-12" target="6cQkPqsOv6DgXbVo88Bq-14">
          <mxGeometry relative="1" as="geometry" />
        </mxCell>
        <mxCell id="6cQkPqsOv6DgXbVo88Bq-12" value="INTF = 0&lt;br&gt;标志位置零" style="rounded=0;whiteSpace=wrap;html=1;" vertex="1" parent="1">
          <mxGeometry x="270" y="590" width="120" height="60" as="geometry" />
        </mxCell>
        <mxCell id="6cQkPqsOv6DgXbVo88Bq-13" style="edgeStyle=orthogonalEdgeStyle;rounded=0;orthogonalLoop=1;jettySize=auto;html=1;" edge="1" parent="1" source="6cQkPqsOv6DgXbVo88Bq-14" target="6cQkPqsOv6DgXbVo88Bq-16">
          <mxGeometry relative="1" as="geometry" />
        </mxCell>
        <mxCell id="6cQkPqsOv6DgXbVo88Bq-14" value="INTE = 1&lt;br&gt;允许INT外部引脚中断" style="rounded=0;whiteSpace=wrap;html=1;" vertex="1" parent="1">
          <mxGeometry x="270" y="670" width="120" height="60" as="geometry" />
        </mxCell>
        <mxCell id="6cQkPqsOv6DgXbVo88Bq-15" style="edgeStyle=orthogonalEdgeStyle;rounded=0;orthogonalLoop=1;jettySize=auto;html=1;exitX=0.5;exitY=1;exitDx=0;exitDy=0;entryX=0.5;entryY=0;entryDx=0;entryDy=0;" edge="1" parent="1" source="6cQkPqsOv6DgXbVo88Bq-16" target="6cQkPqsOv6DgXbVo88Bq-41">
          <mxGeometry relative="1" as="geometry" />
        </mxCell>
        <mxCell id="6cQkPqsOv6DgXbVo88Bq-16" value="GIE=1&lt;br&gt;允许全局中断" style="rounded=0;whiteSpace=wrap;html=1;" vertex="1" parent="1">
          <mxGeometry x="270" y="750" width="120" height="60" as="geometry" />
        </mxCell>
        <mxCell id="6cQkPqsOv6DgXbVo88Bq-46" style="edgeStyle=orthogonalEdgeStyle;rounded=0;orthogonalLoop=1;jettySize=auto;html=1;" edge="1" parent="1" source="6cQkPqsOv6DgXbVo88Bq-18" target="6cQkPqsOv6DgXbVo88Bq-45">
          <mxGeometry relative="1" as="geometry" />
        </mxCell>
        <mxCell id="6cQkPqsOv6DgXbVo88Bq-18" value="PORTD = 0xFF&lt;br&gt;灯全亮" style="rounded=0;whiteSpace=wrap;html=1;" vertex="1" parent="1">
          <mxGeometry x="270" y="930" width="120" height="60" as="geometry" />
        </mxCell>
        <mxCell id="6cQkPqsOv6DgXbVo88Bq-54" style="edgeStyle=orthogonalEdgeStyle;rounded=0;orthogonalLoop=1;jettySize=auto;html=1;" edge="1" parent="1" source="6cQkPqsOv6DgXbVo88Bq-21" target="6cQkPqsOv6DgXbVo88Bq-53">
          <mxGeometry relative="1" as="geometry" />
        </mxCell>
        <mxCell id="6cQkPqsOv6DgXbVo88Bq-21" value="进入中断处理程序" style="rounded=0;whiteSpace=wrap;html=1;" vertex="1" parent="1">
          <mxGeometry x="530" y="1030" width="120" height="60" as="geometry" />
        </mxCell>
        <mxCell id="6cQkPqsOv6DgXbVo88Bq-44" style="edgeStyle=orthogonalEdgeStyle;rounded=0;orthogonalLoop=1;jettySize=auto;html=1;entryX=0;entryY=0.5;entryDx=0;entryDy=0;" edge="1" parent="1" source="6cQkPqsOv6DgXbVo88Bq-24" target="6cQkPqsOv6DgXbVo88Bq-18">
          <mxGeometry relative="1" as="geometry">
            <Array as="points">
              <mxPoint x="180" y="1290" />
              <mxPoint x="180" y="960" />
            </Array>
          </mxGeometry>
        </mxCell>
        <mxCell id="6cQkPqsOv6DgXbVo88Bq-52" style="edgeStyle=orthogonalEdgeStyle;rounded=0;orthogonalLoop=1;jettySize=auto;html=1;exitX=1;exitY=0.5;exitDx=0;exitDy=0;entryX=0;entryY=0.5;entryDx=0;entryDy=0;" edge="1" parent="1" source="6cQkPqsOv6DgXbVo88Bq-24" target="6cQkPqsOv6DgXbVo88Bq-21">
          <mxGeometry relative="1" as="geometry">
            <mxPoint x="530" y="660" as="targetPoint" />
          </mxGeometry>
        </mxCell>
        <mxCell id="6cQkPqsOv6DgXbVo88Bq-24" value="是否发生中断" style="rhombus;whiteSpace=wrap;html=1;rounded=0;" vertex="1" parent="1">
          <mxGeometry x="290" y="1250" width="80" height="80" as="geometry" />
        </mxCell>
        <mxCell id="6cQkPqsOv6DgXbVo88Bq-25" value="是" style="text;html=1;align=center;verticalAlign=middle;resizable=0;points=[];autosize=1;strokeColor=none;fillColor=none;" vertex="1" parent="1">
          <mxGeometry x="390" y="1260" width="40" height="30" as="geometry" />
        </mxCell>
        <mxCell id="6cQkPqsOv6DgXbVo88Bq-26" value="否" style="text;html=1;align=center;verticalAlign=middle;resizable=0;points=[];autosize=1;strokeColor=none;fillColor=none;" vertex="1" parent="1">
          <mxGeometry x="240" y="1270" width="40" height="30" as="geometry" />
        </mxCell>
        <mxCell id="6cQkPqsOv6DgXbVo88Bq-38" style="edgeStyle=orthogonalEdgeStyle;rounded=0;orthogonalLoop=1;jettySize=auto;html=1;entryX=0;entryY=0.5;entryDx=0;entryDy=0;exitX=0.5;exitY=1;exitDx=0;exitDy=0;" edge="1" parent="1" source="6cQkPqsOv6DgXbVo88Bq-39" target="6cQkPqsOv6DgXbVo88Bq-41">
          <mxGeometry relative="1" as="geometry">
            <Array as="points">
              <mxPoint x="590" y="1340" />
              <mxPoint x="120" y="1340" />
              <mxPoint x="120" y="870" />
            </Array>
            <mxPoint x="450" y="1095" as="sourcePoint" />
            <mxPoint x="150" y="930" as="targetPoint" />
          </mxGeometry>
        </mxCell>
        <mxCell id="6cQkPqsOv6DgXbVo88Bq-39" value="INTF=0&lt;br&gt;中断处理完毕" style="whiteSpace=wrap;html=1;rounded=0;" vertex="1" parent="1">
          <mxGeometry x="530" y="1230" width="120" height="60" as="geometry" />
        </mxCell>
        <mxCell id="6cQkPqsOv6DgXbVo88Bq-40" style="edgeStyle=orthogonalEdgeStyle;rounded=0;orthogonalLoop=1;jettySize=auto;html=1;exitX=0.5;exitY=1;exitDx=0;exitDy=0;entryX=0.5;entryY=0;entryDx=0;entryDy=0;" edge="1" parent="1" source="6cQkPqsOv6DgXbVo88Bq-41" target="6cQkPqsOv6DgXbVo88Bq-18">
          <mxGeometry relative="1" as="geometry" />
        </mxCell>
        <mxCell id="6cQkPqsOv6DgXbVo88Bq-41" value="while（1）" style="rhombus;whiteSpace=wrap;html=1;rounded=0;" vertex="1" parent="1">
          <mxGeometry x="290" y="830" width="80" height="80" as="geometry" />
        </mxCell>
        <mxCell id="6cQkPqsOv6DgXbVo88Bq-42" value="是" style="text;html=1;align=center;verticalAlign=middle;resizable=0;points=[];autosize=1;strokeColor=none;fillColor=none;" vertex="1" parent="1">
          <mxGeometry x="340" y="885" width="40" height="30" as="geometry" />
        </mxCell>
        <mxCell id="6cQkPqsOv6DgXbVo88Bq-48" style="edgeStyle=orthogonalEdgeStyle;rounded=0;orthogonalLoop=1;jettySize=auto;html=1;" edge="1" parent="1" source="6cQkPqsOv6DgXbVo88Bq-45" target="6cQkPqsOv6DgXbVo88Bq-47">
          <mxGeometry relative="1" as="geometry" />
        </mxCell>
        <mxCell id="6cQkPqsOv6DgXbVo88Bq-45" value="DelayMS（1000）&lt;br&gt;停顿1秒" style="rounded=0;whiteSpace=wrap;html=1;" vertex="1" parent="1">
          <mxGeometry x="270" y="1015" width="120" height="60" as="geometry" />
        </mxCell>
        <mxCell id="6cQkPqsOv6DgXbVo88Bq-50" style="edgeStyle=orthogonalEdgeStyle;rounded=0;orthogonalLoop=1;jettySize=auto;html=1;" edge="1" parent="1" source="6cQkPqsOv6DgXbVo88Bq-47" target="6cQkPqsOv6DgXbVo88Bq-49">
          <mxGeometry relative="1" as="geometry" />
        </mxCell>
        <mxCell id="6cQkPqsOv6DgXbVo88Bq-47" value="PORTD=0x00&lt;br&gt;灯全灭" style="rounded=0;whiteSpace=wrap;html=1;" vertex="1" parent="1">
          <mxGeometry x="270" y="1090" width="120" height="60" as="geometry" />
        </mxCell>
        <mxCell id="6cQkPqsOv6DgXbVo88Bq-51" style="edgeStyle=orthogonalEdgeStyle;rounded=0;orthogonalLoop=1;jettySize=auto;html=1;exitX=0.5;exitY=1;exitDx=0;exitDy=0;entryX=0.5;entryY=0;entryDx=0;entryDy=0;" edge="1" parent="1" source="6cQkPqsOv6DgXbVo88Bq-49" target="6cQkPqsOv6DgXbVo88Bq-24">
          <mxGeometry relative="1" as="geometry" />
        </mxCell>
        <mxCell id="6cQkPqsOv6DgXbVo88Bq-49" value="SLEEP（）&lt;br&gt;睡眠状态" style="rounded=0;whiteSpace=wrap;html=1;" vertex="1" parent="1">
          <mxGeometry x="270" y="1170" width="120" height="60" as="geometry" />
        </mxCell>
        <mxCell id="6cQkPqsOv6DgXbVo88Bq-55" style="edgeStyle=orthogonalEdgeStyle;rounded=0;orthogonalLoop=1;jettySize=auto;html=1;entryX=0.5;entryY=0;entryDx=0;entryDy=0;" edge="1" parent="1" source="6cQkPqsOv6DgXbVo88Bq-53" target="6cQkPqsOv6DgXbVo88Bq-39">
          <mxGeometry relative="1" as="geometry" />
        </mxCell>
        <mxCell id="6cQkPqsOv6DgXbVo88Bq-53" value="唤醒单片机" style="rounded=0;whiteSpace=wrap;html=1;" vertex="1" parent="1">
          <mxGeometry x="530" y="1125" width="120" height="60" as="geometry" />
        </mxCell>
      </root>
    </mxGraphModel>
  </diagram>
</mxfile>
